#N canvas 560 169 450 505 10;
#X declare -lib mrpeach;
#X obj 120 53 adc~;
#X obj 128 90 env~ 128;
#X obj 125 119 - 100;
#X floatatom 125 158 5 0 0 0 - - -;
#X obj 263 9 import mrpeach;
#X obj 124 300 packOSC;
#X obj 124 396 udpsend;
#X msg 212 320 connect 127.0.0.1 12000;
#X msg 211 351 disconnect;
#X msg 124 271 send /first \$1;
#X obj 242 158 vu 15 120 empty empty -1 -8 0 10 -66577 -1 1 0;
#X obj 123 220 line;
#X floatatom 123 248 5 0 0 0 - - -;
#X msg 122 191 \$1 200;
#X obj 326 161 vu 15 120 empty empty -1 -8 0 10 -66577 -1 1 0;
#X text 477 34 Use of line object to smooth amplitude from: https://www.youtube.com/watch?v=I9db3hmA96U
;
#X connect 0 0 1 0;
#X connect 0 1 1 0;
#X connect 1 0 2 0;
#X connect 2 0 3 0;
#X connect 2 0 10 0;
#X connect 3 0 13 0;
#X connect 5 0 6 0;
#X connect 7 0 6 0;
#X connect 8 0 6 0;
#X connect 9 0 5 0;
#X connect 11 0 12 0;
#X connect 12 0 9 0;
#X connect 12 0 14 0;
#X connect 13 0 11 0;
